Coordinates
version=1
nRows=25
nColumns=23
inDegrees=yes

Units are S.I. units (second, meters, Newtons, ...)
If the header above contains a line with 'inDegrees', this indicates whether rotational values are in degrees (yes) or radians (no).

endheader
time	pelvis_tilt	pelvis_list	pelvis_rotation	pelvis_tx	pelvis_ty	pelvis_tz	hip_flexion_r	hip_adduction_r	hip_rotation_r	knee_angle_r	knee_angle_r_beta	ankle_angle_r	subtalar_angle_r	mtp_angle_r	hip_flexion_l	hip_adduction_l	hip_rotation_l	knee_angle_l	knee_angle_l_beta	ankle_angle_l	subtalar_angle_l	mtp_angle_l
      0.00000000	     -3.88180590	     -3.99825374	      0.65511898	      2.39115060	      1.07311262	      1.03309683	     35.98377083	      2.23313688	     -8.75251820	     65.19044537	      1.13778791	     -0.12566666	    -12.02664564	      0.00000000	    -22.89301866	     -3.35609387	     -3.72840521	      7.71862151	      0.13471536	    -17.85145331	      7.72894077	      0.00000000
      0.00666667	     -4.86955549	     -3.09183000	     -0.21113992	      2.39219229	      1.07494199	      1.03407221	     36.99942174	      1.82742476	     -8.12872091	     61.50723337	      1.07350374	      0.32497759	    -11.07616631	      0.00000000	    -22.21253786	     -2.33874258	     -5.09386460	      9.25234438	      0.16148387	    -18.35669870	      6.77714593	      0.00000000
      0.01333333	     -5.70567499	     -2.29594547	     -0.94623883	      2.39326556	      1.07666318	      1.03487198	     37.65516297	      1.51756875	     -7.68527538	     57.55774474	      1.00457216	      0.83132793	     -9.97310189	      0.00000000	    -21.72441296	     -1.48679281	     -6.27533844	     10.70802453	      0.18689028	    -18.84285125	      5.73462026	      0.00000000
      0.02000000	     -6.74830996	     -1.37822821	     -1.63702329	      2.39413291	      1.07761085	      1.03567555	     38.45892819	      1.11159943	     -7.26335911	     53.58333257	      0.93520558	      1.56118840	     -8.49786725	      0.00000000	    -20.78087446	     -0.65136988	     -7.78475916	     12.64343669	      0.22066960	    -18.89168131	      5.45015839	      0.00000000
      0.02666667	     -7.51096979	     -0.72620179	     -2.26535498	      2.39486659	      1.07855970	      1.03654967	     38.78146065	      1.00875040	     -6.98364400	     49.40010551	      0.86219449	      2.25135622	     -7.14242098	      0.00000000	    -20.18374321	     -0.05745169	     -8.76431754	     14.49525423	      0.25298991	    -18.93538355	      4.42267604	      0.00000000
      0.03333333	     -8.16240541	     -0.25720698	     -2.69389700	      2.39555124	      1.07914786	      1.03715231	     38.85001334	      0.88885897	     -7.16866013	     45.21183351	      0.78909536	      3.11024295	     -5.36826288	      0.00000000	    -19.48150073	      0.15462911	    -10.01359622	     16.85662162	      0.29420355	    -18.52749038	      4.37156500	      0.00000000
      0.04000000	     -8.69079955	      0.08830679	     -3.16213310	      2.39600571	      1.07941536	      1.03800492	     38.70827900	      0.98603988	     -7.32642193	     41.05443369	      0.71653504	      3.98085931	     -3.67500474	      0.00000000	    -18.85946959	      0.26639810	    -10.90958490	     19.33686434	      0.33749195	    -18.07659490	      3.97659539	      0.00000000
      0.04666667	     -9.03576171	      0.28544609	     -3.64970644	      2.39626571	      1.07944939	      1.03893533	     38.29576440	      1.26389163	     -7.51643954	     36.98257109	      0.64546763	      4.91484187	     -1.95525430	      0.00000000	    -18.34054532	      0.23003400	    -11.62400476	     22.01943597	      0.38431166	    -17.57270333	      3.56367657	      0.00000000
      0.05333333	     -9.25178149	      0.32757475	     -4.10158914	      2.39636310	      1.07925256	      1.03989574	     37.67728363	      1.70330227	     -7.72124139	     33.04020183	      0.57666031	      5.80554656	     -0.36699219	      0.00000000	    -17.85717198	      0.05281794	    -12.01570409	     24.88797467	      0.43437710	    -17.07455789	      3.04923948	      0.00000000
      0.06000000	     -9.31587402	      0.24368108	     -4.54318410	      2.39629096	      1.07886784	      1.04085079	     36.84912538	      2.30522736	     -7.77576791	     29.27981927	      0.51102925	      6.60057787	      0.96320684	      0.00000000	    -17.43010093	     -0.21201058	    -12.14345675	     27.93240940	      0.48751251	    -16.64570622	      2.44729532	      0.00000000
      0.06666667	     -9.46070642	      0.26351029	     -5.02276364	      2.39589846	      1.07791281	      1.04176628	     36.19016411	      2.86209358	     -7.52650574	     25.92960498	      0.45255698	      7.34952679	      2.13314459	      0.00000000	    -16.75929476	     -0.30012996	    -11.96123977	     31.17824625	      0.54416305	    -16.40038659	      1.54148098	      0.00000000
      0.07333333	     -9.00146266	     -0.29019558	     -5.32686350	      2.39574588	      1.07773395	      1.04238528	     34.57431021	      3.90714566	     -7.11247194	     22.40219360	      0.39099204	      7.64137123	      2.47868363	      0.00000000	    -16.71178277	     -0.96478177	    -11.74431240	     34.49753235	      0.60209552	    -16.27871959	      1.08852966	      0.00000000
      0.08000000	     -8.64484322	     -0.70547491	     -5.63202199	      2.39530433	      1.07691679	      1.04279000	     33.18832403	      4.78996194	     -6.37111807	     19.40439151	      0.33867052	      7.75003551	      2.58344084	      0.00000000	    -16.37430170	     -1.42871556	    -11.31593188	     38.03090804	      0.66376456	    -16.35948352	      0.34816706	      0.00000000
      0.08666667	     -8.12850200	     -1.16375321	     -5.91933378	      2.39491017	      1.07597550	      1.04297141	     31.59760097	      5.68365811	     -5.24294627	     16.71306520	      0.29169802	      7.71812744	      2.32912240	      0.00000000	    -16.13268618	     -1.91025826	    -10.94137495	     41.63502360	      0.72666825	    -16.58224345	     -0.31887148	      0.00000000
      0.09333333	     -7.50559952	     -1.66385786	     -6.11250355	      2.39445197	      1.07472677	      1.04281409	     29.99650460	      6.45327725	     -4.19466671	     14.61497615	      0.25507945	      7.55178738	      2.08325793	      0.00000000	    -15.86439577	     -2.41684117	    -10.47514626	     45.40108600	      0.79239843	    -16.93693499	     -1.02751261	      0.00000000
      0.10000000	     -7.01563846	     -2.00219488	     -6.25839363	      2.39381668	      1.07275090	      1.04246532	     28.81964563	      6.91711156	     -3.51645118	     13.40806225	      0.23401483	      7.64622347	      2.46408602	      0.00000000	    -15.28684227	     -2.82290985	    -10.06003240	     49.34499911	      0.86123270	    -17.32806512	     -1.84165235	      0.00000000
      0.10666667	     -6.30773490	     -2.36748517	     -6.52524711	      2.39301049	      1.07050877	      1.04206535	     27.64156407	      7.38705326	     -2.71871748	     13.03178806	      0.22744761	      7.89119930	      2.90359829	      0.00000000	    -14.88810418	     -3.12324887	     -9.69187703	     53.28435401	      0.92998742	    -17.71009184	     -2.56913298	      0.00000000
      0.11333333	     -5.36394532	     -2.49318138	     -6.73467502	      2.39208509	      1.06820340	      1.04148791	     26.38956747	      7.51795791	     -1.96462452	     13.28467151	      0.23186126	      7.81462759	      3.30786879	      0.00000000	    -14.64024573	     -3.19484561	     -9.38593442	     57.15297873	      0.99750766	    -18.37646007	     -3.00756510	      0.00000000
      0.12000000	     -4.64864790	     -3.42132417	     -6.74499911	      2.39141071	      1.06502914	      1.04069914	     25.27559606	      8.37171750	     -1.61958280	     13.78454134	      0.24058563	      7.90899754	      3.37358392	      0.00000000	    -14.12891578	     -4.31649130	     -9.23438361	     61.32650421	      1.07034942	    -18.37310926	     -4.07409697	      0.00000000
      0.12666667	     -3.71871643	     -4.06704220	     -6.77445831	      2.39054352	      1.06171288	      1.03986763	     24.16250390	      8.91041933	     -1.26053093	     14.95589038	      0.26102953	      7.74807862	      3.38718627	      0.00000000	    -13.76288035	     -5.11859222	     -9.08476658	     65.36238598	      1.14078884	    -18.51119391	     -4.82036024	      0.00000000
      0.13333333	     -2.84929503	     -4.68388286	     -6.80264611	      2.38948819	      1.05781418	      1.03909958	     23.29051603	      9.41592982	     -1.03231884	     16.70084059	      0.29148466	      7.57868486	      3.25485135	      0.00000000	    -13.25319835	     -5.95411003	     -8.96802967	     69.39989653	      1.21125670	    -18.51387376	     -5.57784041	      0.00000000
      0.14000000	     -2.60986161	     -4.78791655	     -6.99699216	      2.38782862	      1.05242032	      1.03856867	     23.56743828	      9.45347754	     -1.03955480	     19.46108394	      0.33965999	      7.61891033	      3.35907773	      0.00000000	    -11.83708982	     -6.33081171	     -8.84308178	     73.57709416	      1.28416255	    -18.24883316	     -6.34858216	      0.00000000
      0.14666667	     -2.07176255	     -5.08294156	     -7.10354905	      2.38629351	      1.04712746	      1.03799474	     23.44433187	      9.66733848	     -0.95525496	     22.28246241	      0.38890233	      7.61704472	      2.88154724	      0.00000000	    -10.75262929	     -6.91022416	     -8.68464647	     77.57958457	      1.35401918	    -17.97820830	     -7.27131010	      0.00000000
      0.15333333	     -1.63206210	     -5.34779307	     -7.18941945	      2.38453483	      1.04141985	      1.03752242	     23.45896476	      9.89573836	     -0.80620261	     25.28020688	      0.44122285	      7.66566214	      1.95914636	      0.00000000	     -9.46451667	     -7.52773242	     -8.47658892	     81.53909646	      1.42312570	    -17.55837656	     -8.10839613	      0.00000000
      0.16000000	     -1.23761960	     -5.58030802	     -7.23561279	      2.38259620	      1.03548182	      1.03712809	     23.53659809	     10.11642581	     -0.66198886	     28.40701546	      0.49579595	      7.99951347	      0.81838373	      0.00000000	     -8.02977467	     -8.16021503	     -8.18010495	     85.41110087	      1.49070493	    -17.03009010	     -8.88426551	      0.00000000
